<svg width="1440" height="1078" viewBox="0 0 1440 1078" fill="none" xmlns="http://www.w3.org/2000/svg">
<path d="M0 0H1440V1018C1440 1018 1002.15 1078 720 1078C437.848 1078 0 1018 0 1018V0Z" fill="url(#paint0_linear_0_1)"/>
<path d="M0 0H1440V1018C1440 1018 1002.15 1078 720 1078C437.848 1078 0 1018 0 1018V0Z" fill="url(#paint1_radial_0_1)"/>
<path d="M0 0H1440V1018C1440 1018 1002.15 1078 720 1078C437.848 1078 0 1018 0 1018V0Z" fill="url(#paint2_radial_0_1)"/>
<defs>
<linearGradient id="paint0_linear_0_1" x1="720" y1="0" x2="720" y2="548" gradientUnits="userSpaceOnUse">
<stop stop-color="#DAD1FF"/>
<stop offset="1" stop-color="white" stop-opacity="0"/>
</linearGradient>
<radialGradient id="paint1_radial_0_1" cx="0" cy="0" r="1" gradientUnits="userSpaceOnUse" gradientTransform="translate(1226 287.204) rotate(122.614) scale(938.826 2299.52)">
<stop stop-color="#FBD1FF"/>
<stop offset="1" stop-color="#F9B5FF" stop-opacity="0"/>
</radialGradient>
<radialGradient id="paint2_radial_0_1" cx="0" cy="0" r="1" gradientUnits="userSpaceOnUse" gradientTransform="translate(229 331) rotate(56.6832) scale(893.918 2189.53)">
<stop stop-color="#D1EFFF"/>
<stop offset="1" stop-color="#D1EFFF" stop-opacity="0"/>
</radialGradient>
</defs>
</svg>
